<svg width="28" height="31" viewBox="0 0 28 31" fill="none" xmlns="http://www.w3.org/2000/svg">
<g filter="url(#filter0_d_74_17)">
<path d="M23.0768 16.634C22.5812 17.7332 22.3424 18.224 21.704 19.196C20.8136 20.552 19.556 22.2416 17.9996 22.256C16.6172 22.268 16.262 21.356 14.384 21.3668C12.5072 21.3764 12.116 22.2728 10.7324 22.2596C9.17598 22.2452 7.98438 20.72 7.09278 19.3628C4.60038 15.5708 4.33998 11.1188 5.87718 8.75125C6.96918 7.07005 8.69358 6.08605 10.3136 6.08605C11.9636 6.08605 13.0016 6.99085 14.3648 6.99085C15.6884 6.99085 16.4948 6.08365 18.4028 6.08365C19.8428 6.08365 21.3716 6.86965 22.46 8.22565C18.8936 10.1804 19.472 15.2732 23.0768 16.634ZM16.9556 4.56925C17.648 3.67885 18.1748 2.42365 17.984 1.13965C16.8512 1.21765 15.5276 1.93765 14.7536 2.87725C14.0528 3.72925 13.4732 4.99285 13.6976 6.22165C14.9336 6.25885 16.2128 5.52085 16.9556 4.56925Z" fill="#F2F2F2" fill-opacity="0.4"/>
</g>
<defs>
<filter id="filter0_d_74_17" x="-2" y="0" width="32" height="32" filterUnits="userSpaceOnUse" color-interpolation-filters="sRGB">
<feFlood flood-opacity="0" result="BackgroundImageFix"/>
<feColorMatrix in="SourceAlpha" type="matrix" values="0 0 0 0 0 0 0 0 0 0 0 0 0 0 0 0 0 0 127 0" result="hardAlpha"/>
<feOffset dy="4"/>
<feGaussianBlur stdDeviation="2"/>
<feComposite in2="hardAlpha" operator="out"/>
<feColorMatrix type="matrix" values="0 0 0 0 0 0 0 0 0 0 0 0 0 0 0 0 0 0 0.25 0"/>
<feBlend mode="normal" in2="BackgroundImageFix" result="effect1_dropShadow_74_17"/>
<feBlend mode="normal" in="SourceGraphic" in2="effect1_dropShadow_74_17" result="shape"/>
</filter>
</defs>
</svg>
